<?xml version="1.0" encoding="utf-8"?>
<!-- Generator: Adobe Illustrator 16.0.0, SVG Export Plug-In . SVG Version: 6.00 Build 0)  -->
<!DOCTYPE svg PUBLIC "-//W3C//DTD SVG 1.1//EN" "http://www.w3.org/Graphics/SVG/1.1/DTD/svg11.dtd">
<svg version="1.1" id="Layer_1" xmlns="http://www.w3.org/2000/svg" xmlns:xlink="http://www.w3.org/1999/xlink" x="0px" y="0px"
	 width="27.667px" height="26.667px" viewBox="2.417 2.417 27.667 26.667" enable-background="new 2.417 2.417 27.667 26.667"
	 xml:space="preserve">
<path fill="#22D1BD" d="M27.725,24.773l-5.922-5.036c-0.612-0.551-1.267-0.804-1.796-0.779c1.397-1.639,2.242-3.762,2.242-6.084
	c0-5.177-4.197-9.375-9.375-9.375C7.697,3.5,3.5,7.697,3.5,12.874c0,5.178,4.198,9.375,9.375,9.375c2.322,0,4.445-0.845,6.084-2.242
	c-0.024,0.529,0.229,1.184,0.779,1.796l5.036,5.922c0.863,0.958,2.272,1.039,3.131,0.18C28.764,27.046,28.683,25.637,27.725,24.773z
	 M12.875,19.125c-3.452,0-6.25-2.799-6.25-6.25c0-3.452,2.798-6.25,6.25-6.25c3.451,0,6.25,2.798,6.25,6.25
	C19.125,16.326,16.326,19.125,12.875,19.125z"/>
</svg>
